<svg width="20" height="19" viewBox="0 0 20 19" fill="none" xmlns="http://www.w3.org/2000/svg">
<path d="M13.3333 6.66675C14.6594 6.66675 15.9311 7.19353 16.8688 8.13121C17.8065 9.0689 18.3333 10.3407 18.3333 11.6667V17.5001H15V11.6667C15 11.2247 14.8244 10.8008 14.5118 10.4882C14.1992 10.1757 13.7753 10.0001 13.3333 10.0001C12.8913 10.0001 12.4673 10.1757 12.1548 10.4882C11.8422 10.8008 11.6666 11.2247 11.6666 11.6667V17.5001H8.33329V11.6667C8.33329 10.3407 8.86008 9.0689 9.79776 8.13121C10.7354 7.19353 12.0072 6.66675 13.3333 6.66675Z" stroke="#1E1E1E" stroke-width="2" stroke-linecap="round" stroke-linejoin="round"/>
<path d="M4.99996 7.50008H1.66663V17.5001H4.99996V7.50008Z" stroke="#1E1E1E" stroke-width="2" stroke-linecap="round" stroke-linejoin="round"/>
<path d="M3.33329 5.00008C4.25377 5.00008 4.99996 4.25389 4.99996 3.33341C4.99996 2.41294 4.25377 1.66675 3.33329 1.66675C2.41282 1.66675 1.66663 2.41294 1.66663 3.33341C1.66663 4.25389 2.41282 5.00008 3.33329 5.00008Z" stroke="#1E1E1E" stroke-width="2" stroke-linecap="round" stroke-linejoin="round"/>
</svg>
