<svg width="20" height="20" viewBox="0 0 20 20" fill="none" xmlns="http://www.w3.org/2000/svg">
<path d="M14.5833 5.41675H14.5916M5.83329 1.66675H14.1666C16.4678 1.66675 18.3333 3.53223 18.3333 5.83341V14.1667C18.3333 16.4679 16.4678 18.3334 14.1666 18.3334H5.83329C3.53211 18.3334 1.66663 16.4679 1.66663 14.1667V5.83341C1.66663 3.53223 3.53211 1.66675 5.83329 1.66675ZM13.3333 9.47508C13.4361 10.1686 13.3177 10.8769 12.9948 11.4993C12.6718 12.1216 12.1609 12.6263 11.5346 12.9415C10.9084 13.2567 10.1987 13.3664 9.50645 13.255C8.81423 13.1436 8.17476 12.8168 7.67899 12.321C7.18322 11.8253 6.8564 11.1858 6.74502 10.4936C6.63363 9.80138 6.74335 9.09166 7.05856 8.46539C7.37378 7.83913 7.87845 7.3282 8.50078 7.00528C9.12311 6.68237 9.83142 6.56391 10.525 6.66675C11.2324 6.77165 11.8873 7.1013 12.393 7.607C12.8987 8.11271 13.2284 8.76765 13.3333 9.47508Z" stroke="#1E1E1E" stroke-width="2" stroke-linecap="round" stroke-linejoin="round"/>
</svg>
